<?xml version="1.0" encoding="UTF-8"?>
<svg version="1.1" xmlns="http://www.w3.org/2000/svg" width="16" height="16">
<path d="M0 0 C5.28 0 10.56 0 16 0 C16 5.28 16 10.56 16 16 C10.72 16 5.44 16 0 16 C0 10.72 0 5.44 0 0 Z " fill="#F6F600" transform="translate(0,0)"/>
<path d="M0 0 C1.62580966 0.11398665 3.25067157 0.24155659 4.875 0.375 C5.77992188 0.44460937 6.68484375 0.51421875 7.6171875 0.5859375 C10 1 10 1 12 3 C12.125 5.625 12.125 5.625 12 8 C11.01 8 10.02 8 9 8 C9 6.68 9 5.36 9 4 C8.34 4 7.68 4 7 4 C7 5.32 7 6.64 7 8 C6.34 8 5.68 8 5 8 C5 6.68 5 5.36 5 4 C4.34 4 3.68 4 3 4 C3 5.32 3 6.64 3 8 C2.01 8 1.02 8 0 8 C0 5.36 0 2.72 0 0 Z " fill="#121200" transform="translate(2,4)"/>
</svg>
